<svg width="31" height="30" viewBox="0 0 31 30" fill="none" xmlns="http://www.w3.org/2000/svg">
<path fill-rule="evenodd" clip-rule="evenodd" d="M14.1875 3.75H16.6875C22.9007 3.75 27.9375 8.7868 27.9375 15C27.9375 21.2132 22.9007 26.25 16.6875 26.25H7.9375C5.17608 26.25 2.9375 24.0114 2.9375 21.25V15C2.9375 8.7868 7.9743 3.75 14.1875 3.75ZM10.4375 18.4375C9.91973 18.4375 9.5 18.0178 9.5 17.5C9.5 16.9822 9.91973 16.5625 10.4375 16.5625H15.4375C15.9553 16.5625 16.375 16.9822 16.375 17.5C16.375 18.0178 15.9553 18.4375 15.4375 18.4375H10.4375ZM10.4375 13.4375C9.91973 13.4375 9.5 13.0178 9.5 12.5C9.5 11.9822 9.91973 11.5625 10.4375 11.5625H20.4375C20.9553 11.5625 21.375 11.9822 21.375 12.5C21.375 13.0178 20.9553 13.4375 20.4375 13.4375H10.4375Z" fill="white"/>
</svg>
