<svg width="35" height="36" viewBox="0 0 35 36" fill="none" xmlns="http://www.w3.org/2000/svg">
<path fill-rule="evenodd" clip-rule="evenodd" d="M16.0417 5.25H18.9583C26.2071 5.25 32.0833 11.1263 32.0833 18.375C32.0833 25.6237 26.2071 31.5 18.9583 31.5H8.75C5.52834 31.5 2.91666 28.8883 2.91666 25.6667V18.375C2.91666 11.1263 8.79293 5.25 16.0417 5.25ZM11.6667 22.3854C11.0626 22.3854 10.5729 21.8957 10.5729 21.2917C10.5729 20.6876 11.0626 20.1979 11.6667 20.1979H17.5C18.1041 20.1979 18.5937 20.6876 18.5937 21.2917C18.5937 21.8957 18.1041 22.3854 17.5 22.3854H11.6667ZM11.6667 16.5521C11.0626 16.5521 10.5729 16.0624 10.5729 15.4583C10.5729 14.8543 11.0626 14.3646 11.6667 14.3646H23.3333C23.9374 14.3646 24.4271 14.8543 24.4271 15.4583C24.4271 16.0624 23.9374 16.5521 23.3333 16.5521H11.6667Z" fill="white"/>
</svg>
