<svg width="35" height="35" viewBox="0 0 35 35" fill="none" xmlns="http://www.w3.org/2000/svg">
<path fill-rule="evenodd" clip-rule="evenodd" d="M17.5 8.05616L18.6157 6.8575C21.6966 3.5475 26.6917 3.5475 29.7726 6.8575C32.8536 10.1675 32.8536 15.5341 29.7726 18.8441L19.7314 29.632C18.499 30.956 16.501 30.956 15.2686 29.632L5.22734 18.8441C2.14644 15.5341 2.14644 10.1675 5.22735 6.8575C8.30826 3.5475 13.3034 3.5475 16.3843 6.8575L17.5 8.05616ZM24.7917 7.65625C24.1876 7.65625 23.6979 8.14594 23.6979 8.75C23.6979 9.35406 24.1876 9.84375 24.7917 9.84375C25.7984 9.84375 26.6146 10.6599 26.6146 11.6667C26.6146 12.2707 27.1043 12.7604 27.7083 12.7604C28.3124 12.7604 28.8021 12.2707 28.8021 11.6667C28.8021 9.45177 27.0066 7.65625 24.7917 7.65625Z" fill="white"/>
</svg>
