<svg width="32" height="32" viewBox="0 0 32 32" fill="none" xmlns="http://www.w3.org/2000/svg">
<path fill-rule="evenodd" clip-rule="evenodd" d="M27.6875 13.6108V23.7071C27.6875 26.5842 25.3743 28.9166 22.5208 28.9166H9.60417C6.7507 28.9166 4.4375 26.5842 4.4375 23.7071V13.6108C4.4375 12.0466 5.13454 10.5652 6.33607 9.57584L12.7944 4.25783C14.6963 2.69173 17.4287 2.69173 19.3306 4.25782L25.7889 9.57584C26.9905 10.5652 27.6875 12.0466 27.6875 13.6108ZM13.4792 22.7812C12.9441 22.7812 12.5104 23.2149 12.5104 23.7499C12.5104 24.2849 12.9441 24.7187 13.4792 24.7187H18.6458C19.1809 24.7187 19.6146 24.2849 19.6146 23.7499C19.6146 23.2149 19.1809 22.7812 18.6458 22.7812H13.4792Z" fill="#FF305D"/>
</svg>
