<svg width="35" height="36" viewBox="0 0 35 36" fill="none" xmlns="http://www.w3.org/2000/svg">
<path fill-rule="evenodd" clip-rule="evenodd" d="M32.0833 8.64591C32.0833 11.4649 29.7981 13.7501 26.9792 13.7501C25.3732 13.7501 23.9405 13.0084 23.0048 11.8489C22.972 11.87 22.9377 11.8895 22.902 11.9074L13.0763 16.8202C13.0409 16.8379 13.005 16.8535 12.9688 16.867C13.0708 17.2695 13.125 17.6909 13.125 18.1251C13.125 18.5592 13.0708 18.9807 12.9688 19.3831C13.005 19.3967 13.0409 19.4123 13.0763 19.43L22.902 24.3428C22.9377 24.3607 22.972 24.3802 23.0048 24.4013C23.9405 23.2418 25.3732 22.5001 26.9792 22.5001C29.7981 22.5001 32.0833 24.7853 32.0833 27.6042C32.0833 30.4232 29.7981 32.7084 26.9792 32.7084C24.1602 32.7084 21.875 30.4232 21.875 27.6042C21.875 27.1701 21.9292 26.7486 22.0312 26.3462C21.995 26.3327 21.9591 26.3171 21.9237 26.2994L12.098 21.3865C12.0623 21.3687 12.028 21.3491 11.9952 21.3281C11.0595 22.4876 9.62678 23.2292 8.02083 23.2292C5.20188 23.2292 2.91666 20.944 2.91666 18.1251C2.91666 15.3061 5.20188 13.0209 8.02083 13.0209C9.62679 13.0209 11.0595 13.7626 11.9952 14.9221C12.028 14.901 12.0623 14.8815 12.098 14.8637L21.9237 9.95079C21.9591 9.9331 21.995 9.91752 22.0312 9.90397C21.9292 9.50155 21.875 9.08006 21.875 8.64591C21.875 5.82696 24.1602 3.54175 26.9792 3.54175C29.7981 3.54175 32.0833 5.82696 32.0833 8.64591Z" fill="white"/>
</svg>
